<svg xmlns="http://www.w3.org/2000/svg" viewBox="0 0 512 512">
  <defs>
    <linearGradient id="tiktokGradient" x1="0%" y1="0%" x2="100%" y2="100%">
      <stop offset="0%" style="stop-color:#25f4ee"/>
      <stop offset="50%" style="stop-color:#fe2c55"/>
      <stop offset="100%" style="stop-color:#ff0050"/>
    </linearGradient>
  </defs>
  <rect width="512" height="512" rx="108" fill="#000"/>
  <!-- TikTok music note shape -->
  <g transform="translate(120, 80)">
    <!-- Cyan shadow layer -->
    <path d="M232 89.6v154.4c0 8.8-7.2 16-16 16h-16c-8.8 0-16-7.2-16-16V89.6c0-8.8 7.2-16 16-16h16c8.8 0 16 7.2 16 16z" fill="#25f4ee" transform="translate(-8, -8)"/>
    <circle cx="152" cy="296" r="72" fill="#25f4ee" transform="translate(-8, -8)"/>
    <!-- Pink shadow layer -->
    <path d="M232 89.6v154.4c0 8.8-7.2 16-16 16h-16c-8.8 0-16-7.2-16-16V89.6c0-8.8 7.2-16 16-16h16c8.8 0 16 7.2 16 16z" fill="#fe2c55" transform="translate(8, 8)"/>
    <circle cx="152" cy="296" r="72" fill="#fe2c55" transform="translate(8, 8)"/>
    <!-- White main layer -->
    <path d="M232 89.6v154.4c0 8.8-7.2 16-16 16h-16c-8.8 0-16-7.2-16-16V89.6c0-8.8 7.2-16 16-16h16c8.8 0 16 7.2 16 16z" fill="#fff"/>
    <circle cx="152" cy="296" r="72" fill="#fff"/>
    <circle cx="152" cy="296" r="40" fill="#000"/>
    <!-- Top curve -->
    <path d="M232 89.6c0 35.2 28.8 64 64 64v48c-61.6 0-112-50.4-112-112h48z" fill="#25f4ee" transform="translate(-8, -8)"/>
    <path d="M232 89.6c0 35.2 28.8 64 64 64v48c-61.6 0-112-50.4-112-112h48z" fill="#fe2c55" transform="translate(8, 8)"/>
    <path d="M232 89.6c0 35.2 28.8 64 64 64v48c-61.6 0-112-50.4-112-112h48z" fill="#fff"/>
  </g>
</svg>
