<svg width="512" height="512" viewBox="0 0 512 512" fill="none" xmlns="http://www.w3.org/2000/svg">
  <rect width="512" height="512" rx="110" fill="#000000"/>
  <!-- cyan shadow -->
  <path d="M320 90V305C320 370 268 420 203 420C138 420 86 368 86 303C86 238 138 186 203 186C221 186 239 190 252 197V90H320Z"
    fill="#25F4EE" transform="translate(-18,-12)"/>
  <!-- red shadow -->
  <path d="M320 90V305C320 370 268 420 203 420C138 420 86 368 86 303C86 238 138 186 203 186C221 186 239 190 252 197V90H320Z"
    fill="#FE2C55" transform="translate(18,12)"/>
  <!-- white main note -->
  <path d="M320 90V305C320 370 268 420 203 420C138 420 86 368 86 303C86 238 138 186 203 186C221 186 239 190 252 197V90H320Z"
    fill="#FFFFFF"/>
  <!-- dollar in circle -->
  <circle cx="203" cy="310" r="72" fill="#000000"/>
  <text x="203" y="340" text-anchor="middle" fill="#FFFFFF" font-size="90" font-weight="800" font-family="system-ui,sans-serif">$</text>
  <!-- top right coin -->
  <circle cx="390" cy="135" r="58" fill="#25F4EE" stroke="#000" stroke-width="8"/>
  <text x="390" y="158" text-anchor="middle" fill="#000000" font-size="66" font-weight="800" font-family="system-ui,sans-serif">$</text>
</svg>